<?xml version="1.0" encoding="utf-8"?>
<!-- Generator: Adobe Illustrator 24.0.2, SVG Export Plug-In . SVG Version: 6.00 Build 0)  -->
<svg version="1.1" id="Calque_1" xmlns="http://www.w3.org/2000/svg" xmlns:xlink="http://www.w3.org/1999/xlink" x="0px" y="0px"
	 viewBox="0 0 800 800" style="enable-background:new 0 0 800 800;" xml:space="preserve">
<style type="text/css">
	.st0{fill:#FFFFFF;}
</style>
<path class="st0" d="M-6,453c0,187.5,129,345.2,303.3,388.3c8,2.1,16.9-5.1,16.7-13.3V653c0-8.9,5.3-17.4,15-22.5
	c9.9-4.9,7.5-22.8-3.3-25C275,595.4,231.8,575,201.5,548c-30.3-27.1-47.5-60-47.5-95c0-24.4,8.7-47.8,24.2-69.2
	c1.6-2.2,2.5-4.8,2.5-7.5V248.8l105.9,56.7c3.3,1.8,7.3,2.1,10.8,0.8C327,297.5,359.3,293,394,293s67,4.5,96.7,13.3
	c3.5,1.3,7.5,0.9,10.8-0.8l105.8-56.7v127.5c0.1,2.7,0.9,5.3,2.5,7.5c15.5,21.3,24.2,44.8,24.2,69.2c0,35.1-17.2,67.9-47.5,95
	c-30.3,27-73.6,47.4-124.2,57.5c-10.8,2.1-13.2,20-3.3,25c9.7,5.1,15,13.6,15,22.5v175c-0.3,8.3,8.7,15.4,16.7,13.3
	C665.1,798.2,794,640.5,794,453c0-220.7-179.3-400-400-400S-6,232.3-6,453z M394,79.7c206.3,0,373.3,167,373.3,373.3
	c0,168.8-113.1,307.9-266.7,354.1V653c0-10.7-4.1-20.2-10-28.3c44.3-12.2,84.9-31.3,114.1-57.5c34.7-30.9,55.9-70.4,55.9-114.2
	c0-28.9-10.5-55.3-26.7-79.2V226.3c0.1-9.3-11.9-16.3-20-11.7l-122.5,65.8c-30.4-8.3-62.9-14.1-97.5-14.1
	c-34.5,0-67.1,5.8-97.5,14.1L174,214.7c-8.1-4.7-20.1,2.3-20,11.7v147.5c-16.2,23.9-26.7,50.3-26.7,79.2
	c0,43.7,21.2,83.3,55.8,114.1c29.3,26.2,69.9,45.3,114.1,57.5c-5.9,8.2-10,17.6-10,28.3v45c-29.1,10.8-48.2,13.1-60,10.8
	c-12.7-2.5-19.6-9.1-27.5-20c-15.8-21.9-31.3-62.4-82.5-75.6c-17.4-4.7-23.3,21.3-6.7,25.9c40.2,10.4,48.1,38.6,67.5,65.6
	c9.7,13.5,23.6,25.9,44.2,30c17.1,3.4,37.9,0.8,65-8.3v80.8C133.8,760.9,20.7,621.8,20.7,453C20.7,246.7,187.7,79.7,394,79.7z"/>
</svg>
