<?xml version="1.0" encoding="utf-8"?>
<!-- Generator: Adobe Illustrator 24.0.2, SVG Export Plug-In . SVG Version: 6.00 Build 0)  -->
<svg version="1.1" id="Calque_1" xmlns="http://www.w3.org/2000/svg" xmlns:xlink="http://www.w3.org/1999/xlink" x="0px" y="0px"
	 viewBox="0 0 24 24" style="enable-background:new 0 0 24 24;" xml:space="preserve">
<style type="text/css">
	.st0{fill:#FFFFFF;}
</style>
<path class="st0" d="M18.8,3.3c1.1,0,2,0.9,2,2v14c0,1.1-0.9,2-2,2h-14c-1.1,0-2-0.9-2-2v-14c0-1.1,0.9-2,2-2
	C4.8,3.3,18.8,3.3,18.8,3.3z M18.3,18.8v-5.3c0-1.8-1.5-3.3-3.3-3.3l0,0c-0.9,0-1.8,0.5-2.3,1.3v-1.1H9.9v8.4h2.8v-4.9
	c0-0.8,0.6-1.4,1.4-1.4s1.4,0.6,1.4,1.4v4.9C15.5,18.8,18.3,18.8,18.3,18.8z M6.6,8.8c0.9,0,1.7-0.8,1.7-1.7l0,0
	c0-0.9-0.8-1.7-1.7-1.7c-0.9,0-1.7,0.8-1.7,1.7l0,0C5,8.1,5.7,8.8,6.6,8.8 M8,18.8v-8.4H5.2v8.4C5.2,18.8,8,18.8,8,18.8z"/>
</svg>
